<svg xmlns="http://www.w3.org/2000/svg" viewBox="0 0 1034.51 958.77"><defs><style>.cls-1{fill:#6e57e0;}.cls-2{fill:#fbfbfe;}</style></defs><title>Asset 15</title><g id="Layer_2" data-name="Layer 2"><g id="Layer_1-2" data-name="Layer 1"><rect class="cls-1" x="30.8" width="958.77" height="958.77" rx="479.38"/><path class="cls-2" d="M97,314.6l281.09.37q38,0,37.44,38.23c-.31,20.42-18.13,36.3-38.56,36.3H97s-19.32,12.88-19.32,25.24c0,12.88,19.32,19.7,19.32,19.7H328.57q97,.39,97.38,97.77-.39,97-97.38,97h-278c-20.46,0-38.28-16-38.56-36.42q-.51-38.47,37.45-38.48H328.78s19.31-10,19.31-22.87c0-13.4-19.31-22.07-19.31-22.07H99.21C45.57,509.35.3,466.72,0,413.08Q-.55,314.59,97,314.6Z"/><path class="cls-2" d="M719.92,389.5H570.11V590.8c0,20.55-16.14,38.26-36.69,38.39-25.48.16-38.22-13.23-38.22-38.39V314.6h427q112.35,0,112.35,112.35V590.8c0,25-12.11,38.39-37.08,38.39s-37.57-13.42-37.82-38.39V427q0-37.45-37.08-37.45H794.82V590.8c0,25.76-12.42,38.39-37.26,38.39-25.1,0-37.64-12.63-37.64-38.39Z"/></g></g></svg>