<svg xmlns="http://www.w3.org/2000/svg" viewBox="0 0 229.64 38.67"><defs><style>.cls-1{fill:#242329;}.cls-2{fill:#6e57e0;}</style></defs><title>Asset 8</title><g id="Layer_2" data-name="Layer 2"><g id="Layer_1-2" data-name="Layer 1"><path class="cls-1" d="M8.75,10.48l25.57,0q3.51,0,3.51,3.48t-3.51,3.52H8.79A1.59,1.59,0,0,0,7,19.27,1.55,1.55,0,0,0,8.79,21H29.88q8.79,0,8.83,8.86t-8.83,8.79H4.52Q1,38.67,1,35.16t3.52-3.52H29.88a1.56,1.56,0,0,0,1.76-1.76c0-1.22-.59-1.83-1.76-1.83H8.79Q0,28.05,0,19.27T8.75,10.48Z"/><path class="cls-2" d="M64.58,17.58H50.52V35.16q0,3.51-3.48,3.51c-2.34,0-3.52-1.17-3.52-3.51l0-24.61H82.16q10.55,0,10.55,10.54l0,14.07q0,3.51-3.51,3.51t-3.55-3.51V21.09q0-3.51-3.48-3.51H71.61V35.16q0,3.51-3.48,3.51t-3.51-3.51Z"/><path class="cls-2" d="M97.59,17.65q0-7,7-7h21.09q7,0,7,7V31.64q0,7-7,7H104.66q-7,0-7.07-7Zm28.13,3.44c0-2.29-1.21-3.44-3.55-3.44H108.11q-3.48,0-3.48,3.44V28.2q0,3.43,3.48,3.44h14.06c2.34,0,3.53-1.17,3.55-3.51Z"/><path class="cls-2" d="M138.52,38.67v-7h0V3.45q0-3.45,3.52-3.45t3.51,3.52l0,7h17.61q10.51,0,10.51,10.54V28.2q0,10.47-10.54,10.47Zm7.06-7h17.55q3.51,0,3.51-3.51v-7q0-3.51-3.44-3.51H145.58Z"/><path class="cls-2" d="M187.88,3.52c0,2.34-1.18,3.51-3.52,3.51s-3.52-1.17-3.52-3.51S182,0,184.36,0,187.88,1.17,187.88,3.52Zm-3.52,7c2.34,0,3.52,1.17,3.52,3.51l0,21.06q0,3.56-3.52,3.55t-3.51-3.51l0-21.17C180.84,11.7,182,10.55,184.36,10.55Z"/><path class="cls-2" d="M194.48,10.55h24.58q10.55,0,10.58,10.54V35.16q0,3.51-3.51,3.51t-3.52-3.51l0-14.07q0-3.51-3.48-3.51H201.52V35.16q0,3.51-3.48,3.51t-3.52-3.51Z"/></g></g></svg>