<svg width="24" height="24" viewBox="0 0 24 24" fill="none" xmlns="http://www.w3.org/2000/svg">
<rect width="24" height="24" rx="6" fill="#BD93F9"/>
<path d="M6.26873 16.721C5.78339 16.721 5.31539 16.656 4.86473 16.526C4.41406 16.4047 4.04573 16.227 3.75973 15.993C3.47373 15.7503 3.33073 15.473 3.33073 15.161V13.64H3.69473C3.82473 14.524 4.09773 15.161 4.51373 15.551C4.92973 15.941 5.51039 16.136 6.25573 16.136C6.75839 16.136 7.15706 16.0277 7.45173 15.811C7.74639 15.5943 7.89373 15.2823 7.89373 14.875C7.89373 14.5283 7.78539 14.2337 7.56873 13.991C7.35206 13.7483 7.01406 13.484 6.55473 13.198L4.95573 12.236C4.37506 11.898 3.95906 11.547 3.70773 11.183C3.46506 10.819 3.34373 10.3943 3.34373 9.909C3.34373 9.22433 3.60373 8.68267 4.12373 8.284C4.65239 7.88533 5.36306 7.686 6.25573 7.686C6.74106 7.686 7.20906 7.751 7.65973 7.881C8.11039 8.00233 8.47873 8.18433 8.76473 8.427C9.05073 8.661 9.19373 8.934 9.19373 9.246V10.767H8.82973C8.68239 9.883 8.40939 9.246 8.01073 8.856C7.61206 8.466 7.07473 8.271 6.39873 8.271C5.93073 8.271 5.55806 8.38367 5.28073 8.609C5.01206 8.83433 4.87773 9.142 4.87773 9.532C4.87773 9.87 4.98173 10.1517 5.18973 10.377C5.40639 10.5937 5.75306 10.8407 6.22973 11.118L7.82873 12.067C8.43539 12.4223 8.86873 12.769 9.12873 13.107C9.39739 13.4363 9.53173 13.835 9.53173 14.303C9.53173 15.057 9.24573 15.6507 8.67373 16.084C8.11039 16.5087 7.30873 16.721 6.26873 16.721ZM21.0178 17.085C20.0818 17.085 19.4058 16.8683 18.9898 16.435C18.5825 15.993 18.3788 15.278 18.3788 14.29V9.688L15.5318 16.5H15.1028L11.6188 9.428V16.5H10.9688V7.92H12.5548L15.7008 14.303L18.3658 7.92H20.0688V14.29C20.0688 15.1047 20.1382 15.7027 20.2768 16.084C20.4155 16.4653 20.6625 16.6907 21.0178 16.76V17.085Z" fill="white"/>
</svg>
