<svg width="23" height="18" viewBox="0 0 23 18" fill="none" xmlns="http://www.w3.org/2000/svg">
<path d="M4.90263 14.272C4.31596 14.272 3.73996 14.192 3.17463 14.032C2.60929 13.872 2.14529 13.6427 1.78263 13.344C1.43063 13.0453 1.25463 12.704 1.25463 12.32V10.608H1.54263C1.72396 11.6747 2.07596 12.448 2.59863 12.928C3.12129 13.3973 3.84129 13.632 4.75863 13.632C5.33463 13.632 5.82529 13.488 6.23063 13.2C6.64663 12.912 6.85463 12.512 6.85463 12C6.85463 11.552 6.71596 11.1627 6.43863 10.832C6.16129 10.5013 5.71329 10.1547 5.09462 9.792L3.12663 8.624C2.44396 8.21867 1.95863 7.808 1.67063 7.392C1.39329 6.976 1.25463 6.46933 1.25463 5.872C1.25463 5.05067 1.53729 4.39467 2.10263 3.904C2.67863 3.40267 3.43063 3.152 4.35863 3.152C4.90263 3.152 5.44129 3.232 5.97463 3.392C6.50796 3.54133 6.94529 3.76533 7.28663 4.064C7.63863 4.352 7.81463 4.688 7.81463 5.072V6.784H7.52663C7.34529 5.71733 6.99863 4.95467 6.48663 4.496C5.98529 4.02667 5.27596 3.792 4.35863 3.792C3.86796 3.792 3.43596 3.94133 3.06263 4.24C2.68929 4.53867 2.50262 4.928 2.50262 5.408C2.50262 5.84533 2.63596 6.208 2.90263 6.496C3.17996 6.784 3.63863 7.12 4.27863 7.504L6.24663 8.672C6.97196 9.10933 7.48396 9.51467 7.78263 9.888C8.08129 10.2613 8.23063 10.736 8.23063 11.312C8.23063 12.208 7.93196 12.928 7.33463 13.472C6.73729 14.0053 5.92663 14.272 4.90263 14.272ZM22.3779 14.72C21.6099 14.72 21.0125 14.6027 20.5859 14.368C20.1592 14.1333 19.8552 13.7707 19.6739 13.28C19.5032 12.7787 19.4179 12.112 19.4179 11.28V5.12L15.4179 14H15.0979L10.9379 4.96V14H10.2979V3.44H11.8179L15.6579 11.76L19.4179 3.44H20.8579V11.28C20.8579 12.272 20.9805 13.04 21.2259 13.584C21.4819 14.128 21.8659 14.4 22.3779 14.4V14.72Z" fill="#BD9FFF"/>
</svg>
