<svg xmlns="http://www.w3.org/2000/svg" viewBox="0 0 400.11 327.05"><defs><style>.cls-1{fill:#e5f1ff;}.cls-2{fill:#a9ccea;}.cls-3{fill:#0f3157;}.cls-4{fill:#ff4d6b;}.cls-12,.cls-15,.cls-16,.cls-17,.cls-20,.cls-22,.cls-25,.cls-5{fill:none;}.cls-22,.cls-5{stroke:#ff4d6b;}.cls-15,.cls-25,.cls-5{stroke-linecap:round;stroke-linejoin:round;}.cls-12,.cls-13,.cls-20,.cls-22,.cls-25,.cls-5{stroke-width:1.13px;}.cls-5{stroke-dasharray:0 5.64;}.cls-13,.cls-14,.cls-6{fill:#BD93F9;}.cls-7{fill:#0f3775;}.cls-8{fill:#284d89;}.cls-9{fill:#2889db;}.cls-10{fill:#fff;}.cls-11{fill:#282e5c;}.cls-12,.cls-13,.cls-14{stroke:#fff;}.cls-12,.cls-13,.cls-14,.cls-16,.cls-17,.cls-20,.cls-22{stroke-miterlimit:10;}.cls-14{stroke-width:0.56px;}.cls-15{stroke:#284d89;stroke-width:2.26px;}.cls-16{stroke:#ff5c66;stroke-width:1.02px;}.cls-17{stroke:#f7f7f7;stroke-width:0.25px;}.cls-18{fill:#f7f7f7;}.cls-19{fill:#28385e;}.cls-20,.cls-25{stroke:#BD93F9;}.cls-21{fill:#f9fbfc;}.cls-23{fill:#1ae5ff;}.cls-24{fill:#287dd1;}</style></defs><title>pc</title><g id="Layer_2" data-name="Layer 2"><g id="OBJECTS"><circle class="cls-1" cx="314.29" cy="85.82" r="85.82"/><circle class="cls-1" cx="93.17" cy="266.74" r="50.16" transform="translate(-161.32 144.01) rotate(-45)"/><path class="cls-2" d="M92.5,28.61a45.86,45.86,0,1,0,45.86,45.86A45.86,45.86,0,0,0,92.5,28.61Zm0,75.17a29.32,29.32,0,1,1,29.32-29.31A29.32,29.32,0,0,1,92.5,103.78Z"/><path class="cls-3" d="M265.75,321.79a5.26,5.26,0,0,1-5.26,5.26H127.43a5.26,5.26,0,1,1,0-10.52h47.23l6.52-12h25.56l6.51,12h47.24A5.26,5.26,0,0,1,265.75,321.79Z"/><rect class="cls-4" x="181.96" y="293.6" width="21.8" height="6.39"/><rect class="cls-4" x="181.96" y="283.08" width="21.8" height="6.39"/><path class="cls-5" d="M366.44,261.45a34.05,34.05,0,1,1,18.81-17.69"/><path class="cls-6" d="M270.18,69.56h-5.45a45.06,45.06,0,0,0-5.57-13.47L263,52.24a4.25,4.25,0,0,0,0-6l-8.55-8.55a4.26,4.26,0,0,0-6,0l-3.85,3.85A45.08,45.08,0,0,0,231.13,36V30.51a4.25,4.25,0,0,0-4.25-4.25H214.79a4.25,4.25,0,0,0-4.25,4.25V36a45,45,0,0,0-13.47,5.58l-3.85-3.85a4.27,4.27,0,0,0-6,0l-8.55,8.55a4.25,4.25,0,0,0,0,6l3.85,3.85a44.83,44.83,0,0,0-5.58,13.47h-5.44a4.25,4.25,0,0,0-4.25,4.25V85.9a4.25,4.25,0,0,0,4.25,4.25h5.44a44.83,44.83,0,0,0,5.58,13.47l-3.85,3.85a4.25,4.25,0,0,0,0,6l8.55,8.54a4.25,4.25,0,0,0,6,0l3.85-3.84a45,45,0,0,0,13.47,5.58v5.44a4.25,4.25,0,0,0,4.25,4.25h12.09a4.26,4.26,0,0,0,4.25-4.25v-5.44a45.08,45.08,0,0,0,13.47-5.58l3.85,3.84a4.24,4.24,0,0,0,6,0l8.55-8.54a4.25,4.25,0,0,0,0-6l-3.84-3.85a45.06,45.06,0,0,0,5.57-13.47h5.45a4.25,4.25,0,0,0,4.25-4.25V73.81A4.25,4.25,0,0,0,270.18,69.56Zm-49.35,31.86A21.57,21.57,0,1,1,242.4,79.85,21.56,21.56,0,0,1,220.83,101.42Z"/><rect class="cls-7" x="92.76" y="17.76" width="202.4" height="322.48" rx="11.47" transform="translate(372.96 -14.95) rotate(90)"/><rect class="cls-8" x="56.23" y="102.85" width="33.26" height="7.33"/><rect class="cls-8" x="96.26" y="102.85" width="33.26" height="7.33"/><rect class="cls-8" x="197.75" y="102.85" width="33.26" height="7.33"/><rect class="cls-8" x="299.23" y="102.85" width="33.26" height="7.33"/><rect class="cls-4" x="134.04" y="102.85" width="59.48" height="7.33"/><rect class="cls-9" x="234.96" y="102.85" width="59.48" height="7.33"/><rect class="cls-9" x="56.42" y="97.02" width="5.83" height="3.57"/><rect class="cls-10" x="56.42" y="116.19" width="60.8" height="3.57"/><rect class="cls-10" x="56.42" y="122.48" width="18.04" height="3.57"/><rect class="cls-8" x="56.79" y="137.24" width="71.6" height="117.27" rx="7.61"/><rect class="cls-10" x="65.82" y="154.43" width="23.96" height="3.66"/><rect class="cls-10" x="65.82" y="162.61" width="23.96" height="3.66"/><rect class="cls-10" x="65.82" y="170.78" width="23.96" height="3.66"/><rect class="cls-10" x="65.82" y="204.89" width="14.66" height="3.66"/><rect class="cls-10" x="65.82" y="213.07" width="14.66" height="3.66"/><rect class="cls-10" x="91" y="213.07" width="14.66" height="3.66"/><rect class="cls-10" x="65.82" y="195.59" width="9.21" height="3.66"/><rect class="cls-10" x="105.28" y="195.59" width="4.89" height="3.66"/><rect class="cls-4" x="78.22" y="195.59" width="25.18" height="3.66"/><rect class="cls-9" x="65.82" y="181.78" width="3.52" height="3.66"/><rect class="cls-4" x="65.82" y="188.26" width="3.52" height="3.66"/><polygon class="cls-10" points="85.36 217.49 84.05 217.49 87.19 212.79 88.51 212.79 85.36 217.49"/><rect class="cls-11" x="65.82" y="223.78" width="54.41" height="3.1"/><rect class="cls-11" x="65.82" y="230.83" width="54.41" height="3.1"/><rect class="cls-6" x="225.56" y="131.6" width="163.13" height="54.13" rx="6.77"/><path class="cls-12" d="M274.05,166.56s8.27-20.3,31.95-15.42,35.71,31.58,66.15,9.78"/><rect class="cls-13" x="347.34" y="167.68" width="3.38" height="3.38"/><line class="cls-14" x1="278.18" y1="150.21" x2="321.03" y2="150.21"/><line class="cls-14" x1="327.61" y1="170.31" x2="370.46" y2="170.31"/><rect class="cls-13" x="296.23" y="148.51" width="3.38" height="3.38"/><rect class="cls-8" x="216.92" y="141.37" width="42.1" height="58.26" rx="4.89"/><rect class="cls-10" x="223.49" y="149.64" width="23.96" height="3.3"/><rect class="cls-10" x="223.49" y="157.01" width="23.96" height="3.3"/><rect class="cls-10" x="223.49" y="164.38" width="9.02" height="3.3"/><rect class="cls-6" x="223.49" y="172" width="15.6" height="3.3"/><rect class="cls-6" x="223.49" y="179.37" width="10.52" height="3.3"/><rect class="cls-10" x="223.49" y="186.74" width="10.52" height="3.3"/><line class="cls-15" x1="362.38" y1="124.27" x2="379.29" y2="124.27"/><path class="cls-16" d="M324.37,219.71l-5.83,4.57-8.38,1.52s-7.87-.51-8.63-.51-6.09-4.31-6.09-4.31l-9.9-3.56L278.69,220l-8.12-1.77-12.19-.77L246.71,222l-9.65,1.53-8.63,2.79-9.64.76L208.38,219l-9.64-1.78-9.9,5.58L181,225.29,172,225l-11.26,6.85h-6.71l-11.34,4"/><line class="cls-17" x1="142.9" y1="236.04" x2="324.63" y2="236.04"/><rect class="cls-18" x="141.12" y="233.75" width="1.86" height="4.57"/><rect class="cls-18" x="323.53" y="233.75" width="1.86" height="4.57"/><line class="cls-17" x1="324.46" y1="236.04" x2="324.46" y2="220.72"/><path class="cls-18" d="M325.47,220a1.44,1.44,0,1,1-1.43-1.44A1.43,1.43,0,0,1,325.47,220Z"/><path class="cls-18" d="M144.75,241.07c.89,0,1.24.43,1.24,1.26v.27c0,.6-.17,1-.67,1.13.55.15.76.59.76,1.21v.48a1.17,1.17,0,0,1-1.3,1.34h-1.3v-5.69Zm-.15,2.41c.5,0,.76-.16.76-.75v-.33c0-.51-.17-.75-.62-.75h-.63v1.83Zm.18,2.7c.47,0,.68-.25.68-.77v-.51c0-.63-.25-.84-.8-.84h-.55v2.12Z"/><path class="cls-18" d="M149.17,243.59v.57h-1.39v2h1.71v.58h-2.34v-5.69h2.34v.58h-1.71v1.94Z"/><path class="cls-18" d="M151.38,246.76v-5.11h-1v-.58h2.72v.58H152v5.11Z"/><path class="cls-18" d="M154.3,245.61l-.22,1.15h-.58l1.09-5.69h.91l1.09,5.69H156l-.22-1.15Zm.08-.54h1.27l-.64-3.28Z"/><path class="cls-18" d="M160.14,246.76v-5.11h-1v-.58h2.72v.58h-1v5.11Z"/><path class="cls-18" d="M164.76,243.59v.57h-1.39v2h1.7v.58h-2.34v-5.69h2.34v.58h-1.7v1.94Z"/><path class="cls-18" d="M168.6,242.44v.15H168v-.19c0-.51-.19-.81-.65-.81s-.64.3-.64.81c0,1.27,1.9,1.39,1.9,3,0,.86-.41,1.42-1.28,1.42s-1.27-.56-1.27-1.42v-.32h.59v.35c0,.51.21.82.66.82s.67-.31.67-.82c0-1.26-1.9-1.38-1.9-3,0-.88.41-1.42,1.26-1.42S168.6,241.58,168.6,242.44Z"/><path class="cls-18" d="M170.47,246.76v-5.11h-1v-.58h2.72v.58H171.1v5.11Z"/><rect class="cls-19" x="184.86" y="242.64" width="113.03" height="2.03"/><rect class="cls-4" x="184.86" y="242.64" width="69.38" height="2.03"/><rect class="cls-19" x="184.86" y="246.53" width="55.58" height="2.03"/><polygon class="cls-4" points="149.63 252.58 156.48 252.58 157.37 250.67 143.53 250.67 143.53 253.85 148.36 253.85 149.63 252.58"/><rect class="cls-18" x="163.07" y="250.65" width="0.76" height="0.76"/><rect class="cls-18" x="167.79" y="250.65" width="0.76" height="0.76"/><rect class="cls-18" x="172.52" y="250.65" width="0.76" height="0.76"/><path class="cls-18" d="M316.32,211.58a1,1,0,0,1,.92-.44c.78,0,1.1.6,1.1,1.39v1c0,.82-.36,1.44-1.23,1.44s-1.23-.62-1.23-1.44v-.31h.36v.33c0,.61.24,1.07.86,1.07s.87-.46.87-1.07v-1c0-.61-.25-1.07-.87-1.07a.79.79,0,0,0-.81.65v.09h-.35l.14-3h2.14v.35h-1.79Z"/><path class="cls-18" d="M319.43,210.59c0-.83.38-1.43,1.25-1.43s1.25.6,1.25,1.43v2.91c0,.83-.38,1.44-1.25,1.44s-1.25-.61-1.25-1.44Zm.37,2.93c0,.62.26,1.08.88,1.08s.88-.46.88-1.08v-3c0-.62-.25-1.07-.88-1.07s-.88.45-.88,1.07Z"/><path class="cls-18" d="M323,210.59c0-.83.38-1.43,1.25-1.43s1.25.6,1.25,1.43v2.91c0,.83-.38,1.44-1.25,1.44s-1.25-.61-1.25-1.44Zm.38,2.93c0,.62.25,1.08.87,1.08s.88-.46.88-1.08v-3c0-.62-.25-1.07-.88-1.07s-.87.45-.87,1.07Z"/><polygon class="cls-19" points="306.02 248.73 304.32 248.73 301.62 242.64 303.31 242.64 306.02 248.73"/><polygon class="cls-19" points="310.42 248.73 308.72 248.73 306.02 242.64 307.71 242.64 310.42 248.73"/><polygon class="cls-19" points="314.81 248.73 313.12 248.73 310.42 242.64 312.11 242.64 314.81 248.73"/><polygon class="cls-19" points="319.21 248.73 317.52 248.73 314.81 242.64 316.51 242.64 319.21 248.73"/><polygon class="cls-19" points="323.53 248.73 321.84 248.73 319.13 242.64 320.82 242.64 323.53 248.73"/><rect class="cls-2" x="288.67" y="39" width="27.51" height="4.93"/><rect class="cls-2" x="288.67" y="47.82" width="41.48" height="4.93"/><rect class="cls-2" x="288.67" y="56.64" width="51.16" height="4.93"/><rect class="cls-2" x="288.67" y="65.46" width="19.56" height="4.93"/><rect class="cls-9" y="98.39" width="27.51" height="4.93"/><rect class="cls-2" y="107.21" width="41.48" height="4.93"/><rect class="cls-2" y="116.03" width="51.16" height="4.93"/><rect class="cls-2" y="124.84" width="19.56" height="4.93"/><rect class="cls-20" x="68.63" y="271.42" width="117.27" height="15.22"/><rect class="cls-20" x="125.2" y="151.52" width="5.64" height="34.58"/><circle class="cls-4" cx="354.22" cy="229.61" r="19.43" transform="translate(-32.04 59.33) rotate(-9.16)"/><path class="cls-21" d="M352.82,227.79l-7.72,2.83,7.72,2.8v2.9l-11-4.19v-3l11-4.19Z"/><path class="cls-21" d="M355.34,224.92l11,4.19v3l-11,4.19v-2.9l7.71-2.8-7.71-2.83Z"/><path class="cls-22" d="M386.62,245.49a2.54,2.54,0,1,1-2.53-2.54A2.54,2.54,0,0,1,386.62,245.49Z"/><rect class="cls-20" x="62.43" y="61.69" width="91.9" height="9.58"/><rect class="cls-6" x="66.38" y="64.79" width="56.94" height="2.82"/><rect class="cls-8" x="140.61" y="136.49" width="67.28" height="3.38"/><rect class="cls-9" x="140.61" y="136.49" width="30.49" height="3.38"/><rect class="cls-8" x="140.61" y="145.22" width="67.28" height="3.38"/><rect class="cls-4" x="140.61" y="145.22" width="46.84" height="3.38"/><rect class="cls-8" x="140.61" y="153.96" width="67.28" height="3.38"/><rect class="cls-23" x="140.61" y="153.96" width="13.72" height="3.38"/><rect class="cls-8" x="140.9" y="130.57" width="1.32" height="1.32"/><rect class="cls-8" x="145.41" y="130.57" width="1.32" height="1.32"/><rect class="cls-8" x="149.92" y="130.57" width="1.32" height="1.32"/><rect class="cls-10" x="266.09" y="176.64" width="2.19" height="2.19"/><rect class="cls-10" x="273.61" y="176.64" width="2.19" height="2.19"/><rect class="cls-10" x="281.13" y="176.64" width="2.19" height="2.19"/><rect class="cls-10" x="297.74" y="89.51" width="4.11" height="4.11"/><rect class="cls-10" x="311.84" y="89.51" width="4.11" height="4.11"/><rect class="cls-10" x="325.93" y="89.51" width="4.11" height="4.11"/><rect class="cls-10" x="239.48" y="259.41" width="4.11" height="4.11"/><rect class="cls-10" x="253.58" y="259.41" width="4.11" height="4.11"/><rect class="cls-10" x="267.67" y="259.41" width="4.11" height="4.11"/><rect class="cls-10" x="67.01" y="145.57" width="2.19" height="2.19"/><rect class="cls-10" x="74.52" y="145.57" width="2.19" height="2.19"/><rect class="cls-10" x="82.04" y="145.57" width="2.19" height="2.19"/><rect class="cls-10" x="337.95" y="142.88" width="36.46" height="3.57"/><rect class="cls-24" x="337.95" y="149.17" width="10.82" height="3.57"/><polygon class="cls-23" points="43.83 150.21 35.93 150.21 35.93 142.31 28.6 142.31 28.6 150.21 20.71 150.21 20.71 157.53 28.6 157.53 28.6 165.43 35.93 165.43 35.93 157.53 43.83 157.53 43.83 150.21"/><polygon class="cls-9" points="22.7 172.19 17.89 172.19 17.89 167.38 13.42 167.38 13.42 172.19 8.61 172.19 8.61 176.66 13.42 176.66 13.42 181.48 17.89 181.48 17.89 176.66 22.7 176.66 22.7 172.19"/><path class="cls-8" d="M154.44,168a12.35,12.35,0,1,0,12.34,12.35A12.34,12.34,0,0,0,154.44,168Zm0,18.78a6.44,6.44,0,1,1,6.43-6.43A6.43,6.43,0,0,1,154.44,186.77Z"/><path class="cls-6" d="M146,179.12a3,3,0,0,0,2.67-1.71,6.43,6.43,0,0,1,11.46,0,3,3,0,0,0,2.67,1.71h0a3,3,0,0,0,2.69-4.21,12.35,12.35,0,0,0-22.18,0,3,3,0,0,0,2.69,4.21Z"/><path class="cls-8" d="M175.17,180.34A12.35,12.35,0,1,0,187.52,168,12.35,12.35,0,0,0,175.17,180.34Zm18.78,0a6.44,6.44,0,1,1-6.43-6.44A6.43,6.43,0,0,1,194,180.34Z"/><path class="cls-4" d="M186.3,188.74a3,3,0,0,0-1.7-2.68,6.42,6.42,0,0,1,0-11.45,3,3,0,0,0,1.7-2.68h0a3,3,0,0,0-4.2-2.69,12.35,12.35,0,0,0,0,22.19,3,3,0,0,0,4.2-2.69Z"/><rect class="cls-20" x="96.64" y="131.6" width="22.55" height="54.13"/><rect class="cls-23" x="99.83" y="142.03" width="6.58" height="1.94"/><rect class="cls-23" x="99.83" y="146.37" width="6.58" height="1.94"/><rect class="cls-23" x="99.83" y="150.7" width="6.58" height="1.94"/><rect class="cls-23" x="99.83" y="173.26" width="6.58" height="1.94"/><rect class="cls-23" x="99.83" y="157.06" width="9.58" height="1.94"/><rect class="cls-10" x="99.83" y="161.4" width="9.58" height="1.94"/><rect class="cls-10" x="99.83" y="165.74" width="9.58" height="1.94"/><rect class="cls-6" x="15.82" y="199.26" width="28.57" height="28.57"/><rect class="cls-20" x="0.79" y="206.02" width="28.57" height="28.57"/><rect class="cls-20" x="355.61" y="281.95" width="12.03" height="12.03"/><polyline class="cls-12" points="211.28 262.97 221.43 262.97 227.06 268.61 285.7 268.61 294.72 259.58 326.3 259.58"/><circle class="cls-12" cx="208.32" cy="263.11" r="2.96"/><circle class="cls-12" cx="329.35" cy="259.44" r="2.96"/><path class="cls-6" d="M369.15,103.78a3.76,3.76,0,1,1-3.76-3.75A3.76,3.76,0,0,1,369.15,103.78Z"/><path class="cls-4" d="M21.84,250.38a3.76,3.76,0,1,1-3.76-3.76A3.75,3.75,0,0,1,21.84,250.38Z"/><path class="cls-4" d="M39.13,264.28a6.58,6.58,0,1,1-6.58-6.58A6.58,6.58,0,0,1,39.13,264.28Z"/><rect class="cls-20" x="236.84" y="286.46" width="26.31" height="6.01"/><rect class="cls-20" x="236.84" y="297.74" width="57.7" height="6.01"/><line class="cls-25" x1="75.65" y1="292.22" x2="69.28" y2="298.6"/><line class="cls-25" x1="81.79" y1="292.22" x2="75.41" y2="298.6"/><line class="cls-25" x1="87.92" y1="292.22" x2="81.54" y2="298.6"/><line class="cls-25" x1="94.05" y1="292.22" x2="87.67" y2="298.6"/><line class="cls-25" x1="100.18" y1="292.22" x2="93.8" y2="298.6"/></g></g></svg>